<svg version="1" xmlns="http://www.w3.org/2000/svg" width="1476" height="1476" viewBox="0 0 1107.000000 1107.000000"><path d="M728 200.6c-1.9.3-9.1 1.4-16 2.5-68.5 10.9-151.6 52.7-219.6 110.4-6.6 5.7-19.9 17.9-29.5 27.2-9.7 9.3-21.4 19.9-26 23.5-19.4 15.2-47.3 31.2-75.2 43.3-11.8 5.1-44.6 17.6-68.2 26-62.3 22.2-84 33.2-118 60C67.3 578.7 18 668.9 42 737.5c8.5 24 21.9 44.4 43.5 66 40.4 40.3 100.3 69.7 167.1 82 23.8 4.3 35.8 5.5 61.9 6.2 40.2.9 67.3-1.8 89-8.8 20.2-6.6 35.5-16.6 74.1-48.1 58.6-47.8 97.3-77.7 124.4-96.2 20.8-14.3 52.7-26.3 82-31 29.2-4.7 34.2-5 111-5.1 84-.2 93.7-.8 119.9-7.5 38.1-9.7 68.8-33 91.3-69.3 33.5-53.9 46.1-146.4 29.1-214.2-14.3-57.2-68.8-124.7-133.7-165.5-35.9-22.6-75.3-37.5-114.6-43.5-10.2-1.6-51.2-2.9-59-1.9zM545.8 391.7c5.1 15.3 66.1 194.4 66.7 196.2.3.8.7 1.2 1 1 .2-.3 11.7-35.6 25.5-78.4 13.8-42.9 28.9-89.8 33.6-104.3l8.5-26.2H775v304h-63l-.2-106.9-.3-107-37 106.9-37 107h-52.1l-5.1-14.8c-24.7-71.4-68.8-196.9-69.5-197.7-.4-.5-.8 47.1-.8 105.8V684h-62V380h93.8l4 11.7z"/></svg>