<?xml version="1.0" encoding="utf-8"?>
<!-- Generator: Adobe Illustrator 22.1.0, SVG Export Plug-In . SVG Version: 6.00 Build 0)  -->
<svg version="1.1" id="Layer_1" xmlns="http://www.w3.org/2000/svg" xmlns:xlink="http://www.w3.org/1999/xlink" x="0px" y="0px"
	 viewBox="0 0 72.8 10.9" style="enable-background:new 0 0 72.8 10.9;" xml:space="preserve">
<style type="text/css">
	.st0{fill:#F2BF5A;}
	.st1{fill:#FFFFFF;}
</style>
<path class="st0" d="M2,10.3c0.1-0.4,0.2-0.9,0.2-1.4c0.1-0.6,0.2-1.2,0.3-1.8c0-0.1,0-0.2-0.1-0.2l-2-2C0.4,4.8,0.3,4.7,0.2,4.6
	C-0.2,4.3,0,4,0.4,3.9C0.7,3.8,1,3.7,1.3,3.7c0.7-0.1,1.5-0.2,2.2-0.3C3.7,3.4,3.9,3.2,4,3c0.4-0.8,0.8-1.7,1.2-2.5
	c0.1-0.2,0.2-0.3,0.4-0.5C5.6,0,5.8,0,5.9,0.1C6,0.2,6.1,0.3,6.2,0.4c0.5,0.9,0.9,1.8,1.4,2.8c0,0.1,0.1,0.2,0.3,0.2
	c1,0.1,2.1,0.3,3.1,0.4c0.2,0,0.4,0.2,0.5,0.3c0.1,0.1,0,0.3-0.1,0.4C10.9,5,10.5,5.4,10,5.9C9.7,6.2,9.3,6.6,8.9,6.9
	C8.9,7,8.9,7.1,8.9,7.1c0.2,1,0.4,2.1,0.5,3.1c0.1,0.2,0,0.5-0.2,0.6C9,11,8.9,11,8.7,10.9c-0.6-0.3-1.3-0.7-1.9-1
	c-0.3-0.2-0.6-0.3-1-0.5c-0.1,0-0.2,0-0.2,0l-2.7,1.4c0,0-0.1,0.1-0.2,0.1C2.3,11,2,10.8,2,10.3z"/>
<path class="st0" d="M17.4,10.3c0.1-0.4,0.2-0.9,0.2-1.4c0.1-0.6,0.2-1.2,0.3-1.8c0-0.1,0-0.2-0.1-0.2l-2-2
	c-0.1-0.1-0.2-0.2-0.3-0.3c-0.4-0.3-0.2-0.6,0.2-0.8c0.3-0.1,0.6-0.1,0.9-0.2c0.7-0.1,1.5-0.2,2.2-0.3c0.2,0,0.4-0.1,0.4-0.3
	c0.4-0.8,0.8-1.7,1.2-2.5c0.1-0.2,0.2-0.3,0.4-0.5C21,0,21.1,0,21.2,0.1c0.1,0.1,0.3,0.2,0.3,0.4c0.5,0.9,0.9,1.8,1.4,2.8
	c0,0.1,0.1,0.2,0.3,0.2c1,0.1,2.1,0.3,3.1,0.4c0.2,0,0.4,0.2,0.5,0.3c0.1,0.1,0,0.3-0.1,0.4c-0.4,0.4-0.9,0.9-1.3,1.3
	c-0.4,0.3-0.7,0.7-1.1,1.1c-0.1,0.1-0.1,0.1-0.1,0.2c0.2,1,0.4,2.1,0.5,3.1c0.1,0.2,0,0.5-0.2,0.6c-0.1,0.1-0.3,0.1-0.4,0
	c-0.6-0.3-1.3-0.7-1.9-1c-0.3-0.2-0.6-0.3-1-0.5c-0.1,0-0.2,0-0.2,0l-2.7,1.4c0,0-0.1,0.1-0.1,0.1C17.7,11,17.3,10.8,17.4,10.3z"/>
<path class="st1" d="M32.7,10.3c0.1-0.4,0.2-0.9,0.2-1.4c0.1-0.6,0.2-1.2,0.3-1.8c0-0.1,0-0.2-0.1-0.2l-2-2
	c-0.1-0.1-0.2-0.2-0.3-0.3c-0.4-0.3-0.2-0.6,0.2-0.8c0.3-0.1,0.6-0.1,0.9-0.2c0.7-0.1,1.5-0.2,2.2-0.3c0.2,0,0.4-0.1,0.4-0.3
	c0.4-0.8,0.8-1.7,1.2-2.5c0.1-0.2,0.2-0.3,0.4-0.5c0.1-0.1,0.2-0.1,0.3,0c0.1,0.1,0.3,0.2,0.3,0.4c0.5,0.9,0.9,1.8,1.4,2.8
	c0,0.1,0.1,0.2,0.3,0.2c1,0.1,2.1,0.3,3.1,0.4c0.2,0,0.4,0.2,0.5,0.3c0.1,0.1,0,0.3-0.1,0.4c-0.4,0.4-0.9,0.9-1.3,1.3
	c-0.4,0.3-0.7,0.7-1.1,1.1c-0.1,0.1-0.1,0.1-0.1,0.2c0.2,1,0.4,2.1,0.5,3.1c0.1,0.2,0,0.5-0.2,0.6c-0.1,0.1-0.3,0.1-0.4,0
	c-0.6-0.3-1.3-0.7-1.9-1c-0.3-0.2-0.6-0.3-1-0.5c-0.1,0-0.2,0-0.2,0l-2.7,1.4c-0.1,0-0.1,0.1-0.2,0.1C33,11,32.7,10.8,32.7,10.3z"/>
<path class="st1" d="M48,10.3c0.1-0.4,0.2-0.9,0.2-1.4c0.1-0.6,0.2-1.2,0.3-1.8c0-0.1,0-0.2-0.1-0.2l-2-2c-0.1-0.1-0.2-0.2-0.3-0.3
	C45.8,4.3,46,4,46.4,3.9c0.3-0.1,0.6-0.1,0.9-0.2c0.7-0.1,1.5-0.2,2.2-0.3c0.2,0,0.4-0.1,0.4-0.3c0.4-0.8,0.8-1.7,1.2-2.5
	c0.1-0.2,0.2-0.3,0.4-0.5c0.1-0.1,0.2-0.1,0.3,0c0.1,0.1,0.3,0.2,0.3,0.4c0.5,0.9,0.9,1.8,1.4,2.8c0,0.1,0.1,0.2,0.3,0.2
	c1,0.1,2.1,0.3,3.1,0.4c0.2,0,0.4,0.2,0.5,0.3c0.1,0.1,0,0.3-0.1,0.4C56.9,5,56.4,5.4,56,5.9c-0.4,0.3-0.7,0.7-1.1,1.1
	c-0.1,0.1-0.1,0.1-0.1,0.2c0.2,1,0.4,2.1,0.5,3.1c0.1,0.2,0,0.5-0.2,0.6c-0.1,0.1-0.3,0.1-0.4,0c-0.6-0.3-1.3-0.7-1.9-1
	c-0.3-0.2-0.6-0.3-1-0.5c-0.1,0-0.2,0-0.2,0l-2.7,1.4c-0.1,0-0.1,0.1-0.2,0.1C48.3,11,48,10.8,48,10.3z"/>
<path class="st1" d="M63.3,10.3c0.1-0.4,0.2-0.9,0.2-1.4c0.1-0.6,0.2-1.2,0.3-1.8c0-0.1,0-0.2-0.1-0.2l-2-2
	c-0.1-0.1-0.2-0.2-0.3-0.3c-0.4-0.3-0.2-0.6,0.2-0.8c0.3-0.1,0.6-0.1,0.9-0.2c0.7-0.1,1.5-0.2,2.2-0.3c0.2,0,0.4-0.1,0.4-0.3
	c0.4-0.8,0.8-1.7,1.2-2.5c0.1-0.2,0.2-0.3,0.4-0.5c0.1-0.1,0.2-0.1,0.3,0c0.1,0.1,0.3,0.2,0.3,0.4c0.5,0.9,0.9,1.8,1.4,2.8
	c0,0.1,0.1,0.2,0.3,0.2c1,0.1,2.1,0.3,3.1,0.4c0.2,0,0.4,0.2,0.5,0.3c0.1,0.1,0,0.3-0.1,0.4c-0.4,0.4-0.9,0.9-1.3,1.3
	c-0.4,0.3-0.7,0.7-1.1,1.1c-0.1,0.1-0.1,0.1-0.1,0.2c0.2,1,0.4,2.1,0.5,3.1c0.1,0.2,0,0.5-0.2,0.6c-0.1,0.1-0.3,0.1-0.4,0
	c-0.6-0.3-1.3-0.7-1.9-1c-0.3-0.2-0.6-0.3-1-0.5c-0.1,0-0.2,0-0.2,0l-2.7,1.4c-0.1,0-0.1,0.1-0.2,0.1C63.6,11,63.3,10.8,63.3,10.3z"
	/>
</svg>
