<?xml version="1.0" encoding="utf-8"?>
<!-- Generator: Adobe Illustrator 22.1.0, SVG Export Plug-In . SVG Version: 6.00 Build 0)  -->
<svg version="1.1" id="Layer_1" xmlns="http://www.w3.org/2000/svg" xmlns:xlink="http://www.w3.org/1999/xlink" x="0px" y="0px"
	 viewBox="0 0 72.8 10.9" style="enable-background:new 0 0 72.8 10.9;" xml:space="preserve">
<style type="text/css">
	.st0{fill:#F2BF5A;}
	.st1{fill:#FFFFFF;}
</style>
<g transform="translate(-81.905 903.121)">
	<path class="st0" d="M83.9-892.8c0.1-0.4,0.2-0.9,0.2-1.4c0.1-0.6,0.2-1.2,0.3-1.8c0-0.1,0-0.1-0.1-0.2l-2-2
		c-0.1-0.1-0.2-0.2-0.3-0.3c-0.4-0.3-0.2-0.6,0.2-0.8c0.3-0.1,0.6-0.1,0.9-0.2c0.7-0.1,1.5-0.2,2.2-0.3c0.2,0,0.4-0.1,0.4-0.3
		c0.4-0.8,0.8-1.7,1.2-2.5c0.1-0.2,0.2-0.3,0.4-0.5c0.1-0.1,0.2-0.1,0.3,0c0.1,0.1,0.3,0.2,0.3,0.4c0.5,0.9,0.9,1.8,1.4,2.8
		c0,0.1,0.1,0.2,0.3,0.2c1,0.1,2.1,0.3,3.1,0.4c0.2,0,0.4,0.2,0.5,0.3c0.1,0.1,0,0.3-0.1,0.4c-0.4,0.4-0.9,0.9-1.3,1.3
		c-0.4,0.4-0.7,0.7-1.1,1.1c-0.1,0.1-0.1,0.1-0.1,0.2c0.2,1,0.4,2.1,0.5,3.1c0.1,0.2,0,0.5-0.2,0.6c-0.1,0.1-0.3,0.1-0.4,0
		c-0.6-0.3-1.3-0.7-1.9-1c-0.3-0.2-0.6-0.3-1-0.5c-0.1,0-0.2,0-0.2,0l-2.7,1.4c-0.1,0-0.1,0.1-0.2,0.1
		C84.3-892.1,83.9-892.3,83.9-892.8z"/>
</g>
<g transform="translate(-66.582 903.121)">
	<path class="st0" d="M83.9-892.8c0.1-0.4,0.2-0.9,0.2-1.4c0.1-0.6,0.2-1.2,0.3-1.8c0-0.1,0-0.1-0.1-0.2l-2-2
		c-0.1-0.1-0.2-0.2-0.3-0.3c-0.4-0.3-0.2-0.6,0.2-0.8c0.3-0.1,0.6-0.1,0.9-0.2c0.7-0.1,1.5-0.2,2.2-0.3c0.2,0,0.4-0.1,0.4-0.3
		c0.4-0.8,0.8-1.7,1.2-2.5c0.1-0.2,0.2-0.3,0.4-0.5c0.1-0.1,0.2-0.1,0.3,0c0.1,0.1,0.3,0.2,0.3,0.4c0.5,0.9,0.9,1.8,1.4,2.8
		c0,0.1,0.1,0.2,0.3,0.2c1,0.1,2.1,0.3,3.1,0.4c0.2,0,0.4,0.2,0.5,0.3c0.1,0.1,0,0.3-0.1,0.4c-0.4,0.4-0.9,0.9-1.3,1.3
		c-0.4,0.4-0.7,0.7-1.1,1.1c-0.1,0.1-0.1,0.1-0.1,0.2c0.2,1,0.4,2.1,0.5,3.1c0.1,0.2,0,0.5-0.2,0.6c-0.1,0.1-0.3,0.1-0.4,0
		c-0.6-0.3-1.3-0.7-1.9-1c-0.3-0.2-0.6-0.3-1-0.5c-0.1,0-0.2,0-0.2,0l-2.7,1.4c-0.1,0-0.1,0.1-0.2,0.1
		C84.3-892.1,83.9-892.3,83.9-892.8z"/>
</g>
<g transform="translate(-51.259 903.121)">
	<path class="st0" d="M83.9-892.8c0.1-0.4,0.2-0.9,0.2-1.4c0.1-0.6,0.2-1.2,0.3-1.8c0-0.1,0-0.1-0.1-0.2l-2-2
		c-0.1-0.1-0.2-0.2-0.3-0.3c-0.4-0.3-0.2-0.6,0.2-0.8c0.3-0.1,0.6-0.1,0.9-0.2c0.7-0.1,1.5-0.2,2.2-0.3c0.2,0,0.4-0.1,0.4-0.3
		c0.4-0.8,0.8-1.7,1.2-2.5c0.1-0.2,0.2-0.3,0.4-0.5c0.1-0.1,0.2-0.1,0.3,0c0.1,0.1,0.3,0.2,0.3,0.4c0.5,0.9,0.9,1.8,1.4,2.8
		c0,0.1,0.1,0.2,0.3,0.2c1,0.1,2.1,0.3,3.1,0.4c0.2,0,0.4,0.2,0.5,0.3c0.1,0.1,0,0.3-0.1,0.4c-0.4,0.4-0.9,0.9-1.3,1.3
		c-0.4,0.4-0.7,0.7-1.1,1.1c-0.1,0.1-0.1,0.1-0.1,0.2c0.2,1,0.4,2.1,0.5,3.1c0.1,0.2,0,0.5-0.2,0.6c-0.1,0.1-0.3,0.1-0.4,0
		c-0.6-0.3-1.3-0.7-1.9-1c-0.3-0.2-0.6-0.3-1-0.5c-0.1,0-0.2,0-0.2,0l-2.7,1.4c-0.1,0-0.1,0.1-0.2,0.1
		C84.3-892.1,83.9-892.3,83.9-892.8z"/>
</g>
<g transform="translate(-35.936 903.121)">
	<path class="st1" d="M83.9-892.8c0.1-0.4,0.2-0.9,0.2-1.4c0.1-0.6,0.2-1.2,0.3-1.8c0-0.1,0-0.1-0.1-0.2l-2-2
		c-0.1-0.1-0.2-0.2-0.3-0.3c-0.4-0.3-0.2-0.6,0.2-0.8c0.3-0.1,0.6-0.1,0.9-0.2c0.7-0.1,1.5-0.2,2.2-0.3c0.2,0,0.4-0.1,0.4-0.3
		c0.4-0.8,0.8-1.7,1.2-2.5c0.1-0.2,0.2-0.3,0.4-0.5c0.1-0.1,0.2-0.1,0.3,0c0.1,0.1,0.3,0.2,0.3,0.4c0.5,0.9,0.9,1.8,1.4,2.8
		c0,0.1,0.1,0.2,0.3,0.2c1,0.1,2.1,0.3,3.1,0.4c0.2,0,0.4,0.2,0.5,0.3c0.1,0.1,0,0.3-0.1,0.4c-0.4,0.4-0.9,0.9-1.3,1.3
		c-0.4,0.4-0.7,0.7-1.1,1.1c-0.1,0.1-0.1,0.1-0.1,0.2c0.2,1,0.4,2.1,0.5,3.1c0.1,0.2,0,0.5-0.2,0.6c-0.1,0.1-0.3,0.1-0.4,0
		c-0.6-0.3-1.3-0.7-1.9-1c-0.3-0.2-0.6-0.3-1-0.5c-0.1,0-0.2,0-0.2,0l-2.7,1.4c-0.1,0-0.1,0.1-0.2,0.1
		C84.3-892.1,83.9-892.3,83.9-892.8z"/>
</g>
<g transform="translate(-20.612 903.121)">
	<path class="st1" d="M83.9-892.8c0.1-0.4,0.2-0.9,0.2-1.4c0.1-0.6,0.2-1.2,0.3-1.8c0-0.1,0-0.1-0.1-0.2l-2-2
		c-0.1-0.1-0.2-0.2-0.3-0.3c-0.4-0.3-0.2-0.6,0.2-0.8c0.3-0.1,0.6-0.1,0.9-0.2c0.7-0.1,1.5-0.2,2.2-0.3c0.2,0,0.4-0.1,0.4-0.3
		c0.4-0.8,0.8-1.7,1.2-2.5c0.1-0.2,0.2-0.3,0.4-0.5c0.1-0.1,0.2-0.1,0.3,0c0.1,0.1,0.3,0.2,0.3,0.4c0.5,0.9,0.9,1.8,1.4,2.8
		c0,0.1,0.1,0.2,0.3,0.2c1,0.1,2.1,0.3,3.1,0.4c0.2,0,0.4,0.2,0.5,0.3c0.1,0.1,0,0.3-0.1,0.4c-0.4,0.4-0.9,0.9-1.3,1.3
		c-0.4,0.4-0.7,0.7-1.1,1.1c-0.1,0.1-0.1,0.1-0.1,0.2c0.2,1,0.4,2.1,0.5,3.1c0.1,0.2,0,0.5-0.2,0.6c-0.1,0.1-0.3,0.1-0.4,0
		c-0.6-0.3-1.3-0.7-1.9-1c-0.3-0.2-0.6-0.3-1-0.5c-0.1,0-0.2,0-0.2,0l-2.7,1.4c-0.1,0-0.1,0.1-0.2,0.1
		C84.3-892.1,83.9-892.3,83.9-892.8z"/>
</g>
</svg>
