<svg xmlns="http://www.w3.org/2000/svg" viewBox="0 0 72.755 10.945"><defs><style>.a{fill:#f2bf5a;}.b{fill:#f5f5f5;}</style></defs><g transform="translate(81.905 -903.121)"><g transform="translate(-81.905 903.121)"><path class="a" d="M2.033,10.325c.07-.408.155-.911.241-1.414.1-.6.209-1.2.317-1.8.019-.1-.047-.15-.1-.2L.451,4.912C.366,4.83.288,4.738.2,4.661c-.369-.321-.178-.637.225-.774a5.042,5.042,0,0,1,.9-.155c.732-.11,1.463-.232,2.2-.316a.5.5,0,0,0,.443-.344c.4-.839.817-1.669,1.221-2.506A1.7,1.7,0,0,1,5.554.1a.221.221,0,0,1,.308-.02A1.165,1.165,0,0,1,6.2.458c.459.92.919,1.84,1.374,2.765a.284.284,0,0,0,.251.181c1.032.143,2.061.3,3.093.447a.726.726,0,0,1,.5.331c.1.144.029.288-.086.4q-.657.655-1.319,1.307-.534.525-1.073,1.051a.212.212,0,0,0-.059.218c.183,1.037.359,2.076.542,3.114a.609.609,0,0,1-.245.639.382.382,0,0,1-.44-.023c-.644-.332-1.285-.67-1.927-1.006-.32-.168-.644-.332-.961-.507a.225.225,0,0,0-.241.015l-2.72,1.426c-.05.026-.1.053-.15.075C2.348,11.074,2.011,10.852,2.033,10.325Z" transform="translate(-0.001 -0.029)"/></g><g transform="translate(-66.582 903.121)"><path class="a" d="M2.033,10.325c.07-.408.155-.911.241-1.414.1-.6.209-1.2.317-1.8.019-.1-.047-.15-.1-.2L.451,4.912C.366,4.83.288,4.738.2,4.661c-.369-.321-.178-.637.225-.774a5.042,5.042,0,0,1,.9-.155c.732-.11,1.463-.232,2.2-.316a.5.5,0,0,0,.443-.344c.4-.839.817-1.669,1.221-2.506A1.7,1.7,0,0,1,5.554.1a.221.221,0,0,1,.308-.02A1.165,1.165,0,0,1,6.2.458c.459.92.919,1.84,1.374,2.765a.284.284,0,0,0,.251.181c1.032.143,2.061.3,3.093.447a.726.726,0,0,1,.5.331c.1.144.029.288-.086.4q-.657.655-1.319,1.307-.534.525-1.073,1.051a.212.212,0,0,0-.059.218c.183,1.037.359,2.076.542,3.114a.609.609,0,0,1-.245.639.382.382,0,0,1-.44-.023c-.644-.332-1.285-.67-1.927-1.006-.32-.168-.644-.332-.961-.507a.225.225,0,0,0-.241.015l-2.72,1.426c-.05.026-.1.053-.15.075C2.348,11.074,2.011,10.852,2.033,10.325Z" transform="translate(-0.001 -0.029)"/></g><g transform="translate(-51.259 903.121)"><path class="a" d="M2.033,10.325c.07-.408.155-.911.241-1.414.1-.6.209-1.2.317-1.8.019-.1-.047-.15-.1-.2L.451,4.912C.366,4.83.288,4.738.2,4.661c-.369-.321-.178-.637.225-.774a5.042,5.042,0,0,1,.9-.155c.732-.11,1.463-.232,2.2-.316a.5.5,0,0,0,.443-.344c.4-.839.817-1.669,1.221-2.506A1.7,1.7,0,0,1,5.554.1a.221.221,0,0,1,.308-.02A1.165,1.165,0,0,1,6.2.458c.459.92.919,1.84,1.374,2.765a.284.284,0,0,0,.251.181c1.032.143,2.061.3,3.093.447a.726.726,0,0,1,.5.331c.1.144.029.288-.086.4q-.657.655-1.319,1.307-.534.525-1.073,1.051a.212.212,0,0,0-.059.218c.183,1.037.359,2.076.542,3.114a.609.609,0,0,1-.245.639.382.382,0,0,1-.44-.023c-.644-.332-1.285-.67-1.927-1.006-.32-.168-.644-.332-.961-.507a.225.225,0,0,0-.241.015l-2.72,1.426c-.05.026-.1.053-.15.075C2.348,11.074,2.011,10.852,2.033,10.325Z" transform="translate(-0.001 -0.029)"/></g><g transform="translate(-35.936 903.121)"><path class="b" d="M2.033,10.325c.07-.408.155-.911.241-1.414.1-.6.209-1.2.317-1.8.019-.1-.047-.15-.1-.2L.451,4.912C.366,4.83.288,4.738.2,4.661c-.369-.321-.178-.637.225-.774a5.042,5.042,0,0,1,.9-.155c.732-.11,1.463-.232,2.2-.316a.5.5,0,0,0,.443-.344c.4-.839.817-1.669,1.221-2.506A1.7,1.7,0,0,1,5.554.1a.221.221,0,0,1,.308-.02A1.165,1.165,0,0,1,6.2.458c.459.92.919,1.84,1.374,2.765a.284.284,0,0,0,.251.181c1.032.143,2.061.3,3.093.447a.726.726,0,0,1,.5.331c.1.144.029.288-.086.4q-.657.655-1.319,1.307-.534.525-1.073,1.051a.212.212,0,0,0-.059.218c.183,1.037.359,2.076.542,3.114a.609.609,0,0,1-.245.639.382.382,0,0,1-.44-.023c-.644-.332-1.285-.67-1.927-1.006-.32-.168-.644-.332-.961-.507a.225.225,0,0,0-.241.015l-2.72,1.426c-.05.026-.1.053-.15.075C2.348,11.074,2.011,10.852,2.033,10.325Z" transform="translate(-0.001 -0.029)"/></g><g transform="translate(-20.612 903.121)"><path class="b" d="M2.033,10.325c.07-.408.155-.911.241-1.414.1-.6.209-1.2.317-1.8.019-.1-.047-.15-.1-.2L.451,4.912C.366,4.83.288,4.738.2,4.661c-.369-.321-.178-.637.225-.774a5.042,5.042,0,0,1,.9-.155c.732-.11,1.463-.232,2.2-.316a.5.5,0,0,0,.443-.344c.4-.839.817-1.669,1.221-2.506A1.7,1.7,0,0,1,5.554.1a.221.221,0,0,1,.308-.02A1.165,1.165,0,0,1,6.2.458c.459.92.919,1.84,1.374,2.765a.284.284,0,0,0,.251.181c1.032.143,2.061.3,3.093.447a.726.726,0,0,1,.5.331c.1.144.029.288-.086.4q-.657.655-1.319,1.307-.534.525-1.073,1.051a.212.212,0,0,0-.059.218c.183,1.037.359,2.076.542,3.114a.609.609,0,0,1-.245.639.382.382,0,0,1-.44-.023c-.644-.332-1.285-.67-1.927-1.006-.32-.168-.644-.332-.961-.507a.225.225,0,0,0-.241.015l-2.72,1.426c-.05.026-.1.053-.15.075C2.348,11.074,2.011,10.852,2.033,10.325Z" transform="translate(-0.001 -0.029)"/></g></g></svg>