<svg xmlns="http://www.w3.org/2000/svg" xmlns:xlink="http://www.w3.org/1999/xlink" viewBox="0 0 429 4392"><defs><style>.a{clip-path:url(#f);}.b{opacity:0.49;fill:url(#a);}.c{opacity:0.38;fill:url(#b);}.d,.e{opacity:0.7;}.d{fill:url(#c);}.e{fill:url(#d);}.f{fill:#f5f5f5;}</style><linearGradient id="a" x1="-2.303" y1="4.014" x2="-1.697" y2="4.014" gradientUnits="objectBoundingBox"><stop offset="0" stop-color="#ee7097"/><stop offset="1" stop-color="#f5a54d"/></linearGradient><linearGradient id="b" x1="0.658" y1="-1.712" x2="1.264" y2="-1.712" xlink:href="#a"/><linearGradient id="c" x1="0.196" y1="0.914" x2="0.784" y2="0.914" xlink:href="#a"/><linearGradient id="d" x1="4.931" y1="-10.939" x2="5.538" y2="-10.939" xlink:href="#a"/><clipPath id="f"><rect width="429" height="4392"/></clipPath></defs><g id="e" class="a"><rect class="f" width="429" height="4392"/><path class="b" d="M420.4,330.2c-144.9.3-290.8-47.7-345-71.4C-41.1,207.9,9.1,101.9,20.8,50.8,31.2,4.9,151.4,1.2,259,0c67.7-.8,150.3,38.5,232.4,27.3C573.9,16,754.7,2,813.1,29.5,917.3,78.6,866.9,205,855.9,253c-10.4,45.6-87.8,135.4-191.3,103C595.4,334.2,506.2,330.1,420.4,330.2Z" transform="matrix(0.875, -0.485, 0.485, 0.875, -666.949, 3314.534)"/><path class="c" d="M441.84,347.126c-152.314.3-305.659-50.205-362.656-75.126C-43.237,218.52,9.576,107.074,21.824,53.412,32.8,5.207,159.1,1.266,272.245-.007,343.43-.8,430.259,40.5,516.481,28.673c86.768-11.884,276.8-26.619,338.22,2.365,109.506,51.6,56.511,184.511,44.991,234.9-10.914,47.962-92.286,142.37-201.064,108.233C625.866,351.249,532.064,346.944,441.84,347.126Z" transform="translate(322.524 1736.318) rotate(34)"/><path class="d" d="M446.347,459.371C350.1,577.958,355.52,601.335,297.2,622.52,172.038,667.994,56.008,630.8,15.951,571.505c-35.978-53.389-9.192-140.137,61.363-229.2C121.694,286.239,213.5,257.14,257.57,179.218,301.888,100.748,377.983,30.923,442.695,10.1c115.361-37.135,231.391,35.917,269.013,91.619,35.8,53.023,68.425,203.875-30.925,256.655C614.305,393.746,503.388,389.12,446.347,459.371Z" transform="translate(-369.005 10.107)"/><path class="e" d="M261.432,174.175c-90.107.158-180.835-25.162-214.54-37.664-72.446-26.85-41.229-82.765-33.953-109.72C19.406,2.579,94.153.627,161.064-.006c42.1-.422,93.465,20.309,144.519,14.4,51.3-5.961,163.734-13.346,200.051,1.161,64.8,25.9,33.456,92.576,26.615,117.9-6.467,24.054-54.6,71.424-118.961,54.333C370.257,176.285,314.787,174.122,261.432,174.175Z" transform="translate(199.993 3745.046) rotate(-15)"/></g></svg>