<svg xmlns="http://www.w3.org/2000/svg" xmlns:xlink="http://www.w3.org/1999/xlink" viewBox="0 0 2024 6306"><defs><style>.a{clip-path:url(#g);}.b,.e{opacity:0.7;}.b{fill:url(#a);}.c{opacity:0.39;fill:url(#b);}.d{opacity:0.38;fill:url(#c);}.e{fill:url(#d);}.f{opacity:0.49;fill:url(#e);}.g{fill:#fff;}</style><linearGradient id="a" x1="0.196" y1="0.914" x2="0.784" y2="0.914" gradientUnits="objectBoundingBox"><stop offset="0" stop-color="#ee7097"/><stop offset="1" stop-color="#f5a54d"/></linearGradient><linearGradient id="b" x1="2.526" y1="-2.299" x2="3.156" y2="-2.299" gradientUnits="objectBoundingBox"><stop offset="0" stop-color="#ee5697"/><stop offset="1" stop-color="#f5b84d"/></linearGradient><linearGradient id="c" x1="0.658" y1="-1.712" x2="1.264" y2="-1.712" xlink:href="#a"/><linearGradient id="d" x1="4.931" y1="-10.939" x2="5.537" y2="-10.939" xlink:href="#a"/><linearGradient id="e" x1="-2.303" y1="4.014" x2="-1.697" y2="4.014" xlink:href="#a"/><clipPath id="g"><rect width="2024" height="6306"/></clipPath></defs><g id="f" class="a"><rect class="g" width="2024" height="6306"/><path class="b" d="M782.27,805.112c-168.682,207.838-159.186,248.809-261.4,285.938-219.361,79.7-422.719,14.51-492.923-89.409-63.056-93.57-16.111-245.608,107.547-401.7,77.779-98.264,238.673-149.264,315.919-285.831,77.673-137.528,211.039-259.9,324.454-296.394,202.184-65.083,405.541,62.949,471.478,160.573,62.735,92.93,119.923,357.316-54.2,449.819C1076.636,690.1,882.241,681.988,782.27,805.112Z" transform="translate(427.715 6503.763) rotate(-163)"/><path class="c" d="M868.632,4251.168c-253.133-25.395-463.741-112.763-552.116-167.177C126.868,3967.2-29.324,3738.15,4.736,3644.033c30.634-84.748,417.387-107.622,605.624-90.693,118.5,10.682,252.226,99.56,398.442,93.01,147.224-6.55,372.746-78,467.369-15.62,168.688,111.251,140.573,418.093,108.629,506.569-30.432,84.143-189.648,239.73-361.661,159.92C1107.959,4243.813,1018.577,4266.283,868.632,4251.168Z" transform="translate(-804.982 -319.765)"/><path class="d" d="M514.229,404.009c-177.264.353-355.728-58.43-422.061-87.433C-50.306,254.337,11.158,124.634,25.412,62.183,38.255,6.011,185.176,1.5,316.854.013,399.7-.9,500.751,47.152,601.1,33.391,702.079,19.56,923.236,2.412,994.72,36.143c127.444,60.053,65.768,214.735,52.361,273.377-12.7,55.819-107.4,165.691-234,125.962C728.33,408.878,619.233,403.8,514.229,404.009Z" transform="matrix(0.974, 0.225, -0.225, 0.974, 1130.305, 2230.825)"/><path class="e" d="M1753.068,4956.958c-132.065.274-265.041-43.475-314.439-65.074-106.089-46.391-60.336-143-49.763-189.484,9.57-41.833,119.031-45.207,217.1-46.3,61.7-.729,136.987,35.09,211.814,24.882,75.192-10.3,239.977-23.06,293.294,2.005,94.97,44.75,49.034,159.955,39.009,203.7-9.479,41.56-80.023,123.406-174.355,93.876C1912.658,4960.6,1831.359,4956.866,1753.068,4956.958Z" transform="matrix(0.819, 0.574, -0.574, 0.819, 3134.113, -217.05)"/><path class="f" d="M2173.626,417.662c-183.279.379-367.823-60.334-436.378-90.311-147.23-64.382-83.734-198.457-69.062-262.965C1681.467,6.2,1833.5,1.521,1969.6,0c85.631-1.012,190.109,48.7,293.954,34.531,104.351-14.293,333.039-32,407.034,2.783,131.8,62.1,68.05,221.984,54.136,282.7-13.155,57.678-111.056,171.263-241.969,130.281C2395.1,422.721,2282.278,417.535,2173.626,417.662Z" transform="translate(-229.986 165.106)"/></g></svg>