<svg xmlns="http://www.w3.org/2000/svg" xmlns:xlink="http://www.w3.org/1999/xlink" viewBox="0 0 110.926 26.792"><defs><style>.a{fill:url(#a);}.b{fill:#fff;}.c{clip-path:url(#b);}.d{clip-path:url(#c);}.e{fill:url(#d);}.f{clip-path:url(#f);}.g{fill:url(#g);}.h{clip-path:url(#i);}.i{fill:url(#j);}.j{clip-path:url(#l);}.k{fill:url(#m);}.l{clip-path:url(#o);}.m{fill:url(#p);}.n{clip-path:url(#r);}.o{fill:url(#s);}</style><linearGradient id="a" y1="0.5" x2="1" y2="0.5" gradientUnits="objectBoundingBox"><stop offset="0" stop-color="#ee7097"/><stop offset="1" stop-color="#f5a54d"/></linearGradient><clipPath id="b"><rect width="20.584" height="20.584"/></clipPath><clipPath id="c"><path d="M12.09,3.3H10.783a7.925,7.925,0,0,0-1.389.082c-.327.163-.735.327-1.144.49a5.8,5.8,0,0,0-1.144.817,3.108,3.108,0,0,0-.735,1.062,3.609,3.609,0,0,0-.49,1.307A7.026,7.026,0,0,0,5.8,8.364V18.82a7.925,7.925,0,0,0,.082,1.389,3.851,3.851,0,0,0,.49,1.225,5.179,5.179,0,0,0,1.879,1.879,3.5,3.5,0,0,0,1.307.408,7.474,7.474,0,0,0,1.389.082H21.565a7.925,7.925,0,0,0,1.389-.082,6.121,6.121,0,0,0,1.307-.408,5.179,5.179,0,0,0,1.879-1.879,3.5,3.5,0,0,0,.408-1.307,7.474,7.474,0,0,0,.082-1.389V8.364a7.925,7.925,0,0,0-.082-1.389,6.121,6.121,0,0,0-.408-1.307A5.179,5.179,0,0,0,24.26,3.79a3.5,3.5,0,0,0-1.307-.408A7.474,7.474,0,0,0,21.565,3.3H12.09Z" transform="translate(-5.8 -3.3)"/></clipPath><linearGradient id="d" x1="-77.877" y1="122.793" x2="-77.876" y2="122.793" gradientUnits="objectBoundingBox"><stop offset="0" stop-color="#ef4db7"/><stop offset="1" stop-color="#c643fd"/></linearGradient><clipPath id="f"><path d="M17.779,6.5l-.082.082h0c-.082.163-.163.245-.163.327-.082.245-.163.408-.245.653L15.9,11.809h3.921L18.432,7.562a1.539,1.539,0,0,0-.163-.653c0-.082-.082-.163-.082-.245h0a.08.08,0,0,0-.082-.082h-.163a.253.253,0,0,0-.163-.082" transform="translate(-15.9 -6.5)"/></clipPath><radialGradient id="g" cx="-1612.968" cy="2530.747" r="0.016" gradientTransform="translate(571.259 -896.307) scale(1.354 1.354)" gradientUnits="userSpaceOnUse"><stop offset="0" stop-color="#fbe3f8"/><stop offset="0.745" stop-color="#fbe3f8"/><stop offset="0.808" stop-color="#fadef6"/><stop offset="0.88" stop-color="#f9d1f0"/><stop offset="0.955" stop-color="#f6bae7"/><stop offset="0.98" stop-color="#f5b1e3"/><stop offset="1" stop-color="#f5b1e3"/></radialGradient><clipPath id="i"><path d="M18.4,19.869l3.594,2.614c.163.163.408.245.572.408a.3.3,0,0,0,.245.082h.163c.082,0,.082,0,.082-.082l.082-.082v-.163h0V22.4a2.525,2.525,0,0,1-.163-.653L21.586,17.5Z" transform="translate(-18.4 -17.5)"/></clipPath><radialGradient id="j" cx="-1615.01" cy="2521.761" r="0.019" gradientTransform="translate(218.984 -341.933) scale(1.136 1.136)" gradientUnits="userSpaceOnUse"><stop offset="0" stop-color="#f9e3fb"/><stop offset="0.746" stop-color="#f9e3fb"/><stop offset="0.81" stop-color="#f8defb"/><stop offset="0.883" stop-color="#f3d0fa"/><stop offset="0.96" stop-color="#ecbaf9"/><stop offset="0.981" stop-color="#eab2f9"/><stop offset="1" stop-color="#eab2f9"/></radialGradient><clipPath id="l"><path d="M10.225,12.9H9.49a.3.3,0,0,0-.245.082h0c-.082,0-.082.082-.163.082L9,13.145v.163c0,.082,0,.082.082.163h0l.163.163a2.482,2.482,0,0,0,.572.408l3.594,2.614L14.636,12.9Z" transform="translate(-9 -12.9)"/></clipPath><radialGradient id="m" cx="-1607.63" cy="2524.851" r="0.032" gradientTransform="translate(-535.877 841.617) scale(0.667 0.667)" gradientUnits="userSpaceOnUse"><stop offset="0" stop-color="#fae1f8"/><stop offset="0.6" stop-color="#fae1f8"/><stop offset="0.85" stop-color="#f7d6f7"/><stop offset="1" stop-color="#f7d6f7"/></radialGradient><clipPath id="o"><path d="M12.763,21.766a2.525,2.525,0,0,0-.163.653v.245h0v.163a.08.08,0,0,0,.082.082.08.08,0,0,1,.082.082h.163c.082,0,.163-.082.245-.082.163-.163.408-.245.572-.408l3.594-2.614L15.3,18.417,14.152,17.6Z" transform="translate(-12.6 -17.6)"/></clipPath><radialGradient id="p" cx="-1610.965" cy="2521.474" r="0.019" gradientTransform="translate(218.436 -341.894) scale(1.136 1.136)" gradientUnits="userSpaceOnUse"><stop offset="0" stop-color="#fae9fc"/><stop offset="0.669" stop-color="#fae9fc"/><stop offset="0.812" stop-color="#f8defa"/><stop offset="0.91" stop-color="#f6d4f8"/><stop offset="1" stop-color="#f6d4f8"/></radialGradient><clipPath id="r"><path d="M20.8,12.9l1.225,3.757,3.594-2.614c.163-.163.408-.245.572-.408l.163-.163h0c0-.082.082-.082.082-.163v-.163a.08.08,0,0,0-.082-.082.285.285,0,0,0-.163-.082h0a.3.3,0,0,1-.245-.082H20.8Z" transform="translate(-20.8 -12.9)"/></clipPath><radialGradient id="s" cx="-1617.744" cy="2525.231" r="0.032" gradientTransform="translate(-539.248 841.744) scale(0.667 0.667)" gradientUnits="userSpaceOnUse"><stop offset="0" stop-color="#fae9fb"/><stop offset="0.68" stop-color="#fae9fb"/><stop offset="0.813" stop-color="#f8def8"/><stop offset="0.98" stop-color="#f5caf2"/><stop offset="1" stop-color="#f5caf2"/></radialGradient></defs><rect class="a" width="110.926" height="26.792" rx="10"/><g transform="translate(29.978 11.762)"><path class="b" d="M36.7,15.38a.9.9,0,1,1,.9.9A.906.906,0,0,1,36.7,15.38Zm.163,1.96h1.552v7.433H36.863Zm5.554,7.433V15.952h-3.1V14.563h7.76v1.389h-3.1v8.822Zm11.027,0h-1.47V23.467h0a2.288,2.288,0,0,1-2.287,1.389,2.492,2.492,0,0,1-2.614-2.777V17.341h1.552v4.493c0,1.144.572,1.715,1.552,1.715a1.738,1.738,0,0,0,1.8-1.879V17.341h1.552l-.082,7.433Zm1.47-7.433h1.47v1.225h0a2.345,2.345,0,0,1,2.369-1.307c1.634,0,2.532,1.062,2.532,2.777v4.738h-1.47V20.363c0-1.144-.49-1.715-1.552-1.715a1.677,1.677,0,0,0-1.715,1.879v4.248H54.915V17.341Zm14.213,5.228a3.017,3.017,0,0,1-3.186,2.287A3.414,3.414,0,0,1,62.43,21.1c0-2.287,1.307-3.839,3.431-3.839,2.042,0,3.349,1.389,3.349,3.676v.49H63.982v.082a1.934,1.934,0,0,0,1.96,2.124,1.741,1.741,0,0,0,1.715-1.062Zm-5.146-2.205h3.676a1.738,1.738,0,0,0-1.8-1.879A1.9,1.9,0,0,0,63.982,20.363Zm9.149-3.1c1.634,0,2.777.9,2.859,2.205h-1.47a1.316,1.316,0,0,0-1.47-1.062c-.817,0-1.389.408-1.389.98,0,.408.327.735,1.144.9l1.225.327c1.47.327,2.042.9,2.042,1.96,0,1.307-1.307,2.287-3.1,2.287-1.715,0-2.941-.9-3.022-2.287h1.47c.082.735.653,1.062,1.634,1.062.9,0,1.47-.408,1.47-.98,0-.49-.245-.735-1.062-.9l-1.307-.327c-1.307-.327-2.042-.98-2.042-2.042C70.272,18.157,71.415,17.259,73.131,17.259Zm8.413,4.656c.082.98,1.062,1.634,2.451,1.634C85.3,23.549,86.2,22.9,86.2,22c0-.817-.572-1.225-1.879-1.552l-1.307-.327c-1.879-.49-2.7-1.307-2.7-2.777,0-1.715,1.552-2.941,3.676-2.941s3.594,1.225,3.676,2.941H86.119a1.891,1.891,0,0,0-2.124-1.634c-1.225,0-2.124.653-2.124,1.552,0,.735.572,1.144,1.879,1.47l1.144.245c2.124.49,2.941,1.307,2.941,2.777,0,1.879-1.552,3.1-3.921,3.1-2.287,0-3.757-1.144-3.839-3.022l1.47.082Zm9.475-6.29v1.715h1.389v1.225H91.02V22.65c0,.653.245.9.9.9h.49v1.225a2.276,2.276,0,0,1-.817.082c-1.47,0-2.124-.572-2.124-1.96V18.648H88.406V17.341h1.062V15.625ZM93.062,21.1c0-2.369,1.389-3.757,3.512-3.757a3.414,3.414,0,0,1,3.512,3.757c0,2.369-1.389,3.757-3.512,3.757C94.369,24.855,93.062,23.385,93.062,21.1Zm5.473,0c0-1.634-.735-2.532-1.96-2.532s-1.96.98-1.96,2.532c0,1.634.735,2.532,1.96,2.532S98.534,22.65,98.534,21.1Zm2.7-3.757h1.47v1.225h0a1.771,1.771,0,0,1,1.8-1.307c.245,0,.408,0,.49.082v1.389a1.4,1.4,0,0,0-.653-.082,1.508,1.508,0,0,0-1.552,1.715v4.411H101.23V17.341Zm10.782,5.228a3.017,3.017,0,0,1-3.186,2.287,3.414,3.414,0,0,1-3.512-3.757c0-2.287,1.307-3.839,3.431-3.839,2.042,0,3.349,1.389,3.349,3.676v.49h-5.228v.082a1.934,1.934,0,0,0,1.96,2.124,1.741,1.741,0,0,0,1.715-1.062Zm-5.146-2.205h3.676a1.738,1.738,0,0,0-1.8-1.879A1.9,1.9,0,0,0,106.866,20.363Z" transform="translate(-36.7 -14.4)"/></g><g transform="translate(4.738 2.696)"><g class="c"><g class="d"><rect class="e" width="20.584" height="20.584"/></g><g class="c"><g transform="translate(8.25 2.614)"><g class="f"><rect class="g" width="3.921" height="5.309" transform="translate(0)"/></g></g><g class="c"><g transform="translate(10.292 11.599)"><g class="h"><rect class="i" width="4.819" height="5.473"/></g></g><g class="c"><g transform="translate(2.614 7.842)"><g class="j"><rect class="k" width="5.636" height="3.757"/></g></g><g class="c"><g transform="translate(5.554 11.681)"><g class="l"><rect class="m" width="4.819" height="5.473" transform="translate(-0.082 -0.082)"/></g></g><g class="c"><g transform="translate(12.253 7.842)"><g class="n"><rect class="o" width="5.636" height="3.757"/></g></g><g class="c"><path class="b" d="M15.625,12.9,14.4,16.657l1.225.9,2.042,1.47,3.186-2.369L19.628,12.9Z" transform="translate(-7.375 -5.058)"/></g></g><g transform="translate(24.995 0.817)"><path d="M38.687,9.828c-1.389,0-2.287-.98-2.287-2.614A2.329,2.329,0,0,1,38.687,4.6a2,2,0,0,1,2.124,1.634h-.735a1.259,1.259,0,0,0-1.307-.9c-.9,0-1.47.735-1.47,1.879s.572,1.879,1.552,1.879a1.25,1.25,0,0,0,1.389-1.225V7.786H38.932V7.132h2.042v.653A2.184,2.184,0,0,1,38.687,9.828Z" transform="translate(-36.4 -4.355)"/><path d="M46.249,8.959a1.5,1.5,0,0,1-1.634,1.062c-1.062,0-1.715-.735-1.715-1.96s.653-1.96,1.715-1.96,1.634.735,1.634,1.879v.245H43.635v.082a.967.967,0,0,0,.98,1.062.938.938,0,0,0,.9-.49h.735ZM43.635,7.815h1.879c0-.653-.327-.98-.9-.98S43.717,7.162,43.635,7.815Z" transform="translate(-37.591 -4.63)"/><path d="M49.189,5.2v.98h.817v.653h-.817V8.712c0,.408.163.572.49.572h.245v.653h-.408c-.817,0-1.144-.327-1.144-.98V6.752H47.8V6.1h.572V5.2Z" transform="translate(-38.488 -4.465)"/><path d="M54,4.79a.471.471,0,0,1,.49-.49.433.433,0,0,1,.49.49.49.49,0,1,1-.98,0Zm.082,1.144h.735V9.691h-.735Z" transform="translate(-39.624 -4.3)"/><path d="M57.389,5.2v.98h.817v.653h-.817V8.712c0,.408.163.572.49.572h.245v.653h-.408c-.817,0-1.144-.327-1.144-.98V6.752H56V6.1h.572V5.2Z" transform="translate(-39.99 -4.465)"/><path d="M62.1,8.16A1.723,1.723,0,0,1,63.9,6.2a1.763,1.763,0,0,1,1.8,1.96,1.723,1.723,0,0,1-1.8,1.96A1.763,1.763,0,0,1,62.1,8.16Zm2.777,0c0-.817-.327-1.307-.98-1.307s-.98.49-.98,1.307.327,1.307.98,1.307S64.877,8.977,64.877,8.16Z" transform="translate(-41.107 -4.648)"/><path d="M67.7,6.282h.735v.572h.082A1.136,1.136,0,0,1,69.66,6.2a1.227,1.227,0,0,1,1.307,1.389v2.451h-.735V7.752c0-.572-.245-.9-.817-.9s-.9.327-.9.98v2.205h-.735V6.282Z" transform="translate(-42.133 -4.648)"/></g></g></g></g></g></g></g><path class="b" d="M38.887,10.528c-1.389,0-2.287-.98-2.287-2.614A2.329,2.329,0,0,1,38.887,5.3a2,2,0,0,1,2.124,1.634h-.735a1.259,1.259,0,0,0-1.307-.9c-.9,0-1.47.735-1.47,1.879s.572,1.879,1.552,1.879a1.25,1.25,0,0,0,1.389-1.225V8.486H39.132V7.832h2.042v.653A2.135,2.135,0,0,1,38.887,10.528Z" transform="translate(-6.704 -0.971)"/><path class="b" d="M46.449,9.659a1.5,1.5,0,0,1-1.634,1.062c-1.062,0-1.715-.735-1.715-1.96s.653-1.96,1.715-1.96,1.634.735,1.634,1.879v.245H43.835v.082a.967.967,0,0,0,.98,1.062.938.938,0,0,0,.9-.49h.735ZM43.917,8.434H45.8a.927.927,0,0,0-.9-.98A.993.993,0,0,0,43.917,8.434Z" transform="translate(-7.894 -1.246)"/><path class="b" d="M49.389,5.8v.98h.817v.653h-.817V9.312c0,.408.163.572.49.572h.245v.653h-.408c-.817,0-1.144-.327-1.144-.98V7.352H48V6.78h.572V5.8Z" transform="translate(-8.792 -1.062)"/><path class="b" d="M54.2,5.49a.49.49,0,1,1,.98,0c0,.245-.163.408-.49.408A.409.409,0,0,1,54.2,5.49Zm.163,1.144H55.1v3.757h-.735Z" transform="translate(-9.928 -0.916)"/><path class="b" d="M57.589,5.8v.98h.817v.653h-.817V9.312c0,.408.163.572.49.572h.245v.653h-.408c-.817,0-1.144-.327-1.144-.98V7.352H56.2V6.78h.653V5.8Z" transform="translate(-10.294 -1.062)"/><path class="b" d="M62.4,8.76A1.723,1.723,0,0,1,64.2,6.8a1.763,1.763,0,0,1,1.8,1.96,1.8,1.8,0,1,1-3.594,0Zm2.7,0c0-.817-.327-1.307-.98-1.307s-.98.49-.98,1.307.327,1.307.98,1.307S65.1,9.577,65.1,8.76Z" transform="translate(-11.429 -1.246)"/><path class="b" d="M67.9,6.982h.735v.572h.082A1.136,1.136,0,0,1,69.86,6.9a1.227,1.227,0,0,1,1.307,1.389v2.451h-.735V8.452c0-.572-.245-.9-.817-.9s-.9.327-.9.98v2.205h-.735V6.982Z" transform="translate(-12.437 -1.264)"/></svg>