<svg xmlns="http://www.w3.org/2000/svg" xmlns:xlink="http://www.w3.org/1999/xlink" viewBox="0 0 1502.635 1378.045"><defs><style>.a{opacity:0.7;fill:url(#a);}</style><linearGradient id="a" x1="0.196" y1="0.914" x2="0.784" y2="0.914" gradientUnits="objectBoundingBox"><stop offset="0" stop-color="#ee7097"/><stop offset="1" stop-color="#f5a54d"/></linearGradient></defs><path class="a" d="M755.5,777.507C592.6,978.218,601.767,1017.784,503.06,1053.64,291.22,1130.607,94.836,1067.653,27.039,967.3c-61-90.259-15.558-237.186,103.756-387.926,75.112-94.9,230.489-144.146,305.086-276.031C510.994,170.631,639.684,52.45,749.21,17.109,944.461-45.742,1140.846,77.9,1204.521,172.176c60.584,89.744,115.811,345.064-52.342,434.4C1039.769,666.332,851.936,658.6,755.5,777.507Z" transform="matrix(0.966, 0.259, -0.259, 0.966, 281.578, 0)"/></svg>